<svg width="112" height="112" viewBox="0 0 112 112" fill="none" xmlns="http://www.w3.org/2000/svg">
<path d="M56 106.4C56 106.4 95.2 89.6001 95.2 56.0001C95.2 22.4001 56 5.6001 56 5.6001C56 5.6001 16.8 22.4001 16.8 56.0001C16.8 89.6001 56 106.4 56 106.4Z" fill="#F5F5F4"/>
<path d="M56 106.4C56 106.4 95.2 89.6001 95.2 56.0001C95.2 22.4001 56 5.6001 56 5.6001C56 5.6001 16.8 22.4001 16.8 56.0001C16.8 89.6001 56 106.4 56 106.4Z" stroke="#0D9488" stroke-width="4.48" stroke-linejoin="round"/>
<path d="M56 78.4C65.2784 78.4 72.8 70.8785 72.8 61.6C72.8 52.3216 65.2784 44.8 56 44.8C46.7216 44.8 39.2 52.3216 39.2 61.6C39.2 66.022 41.3885 69.9831 44.8 72.6881" stroke="#14B8A6" stroke-width="3.36" stroke-linecap="round"/>
</svg>
